<mxfile host="65bd71144e">
    <diagram id="iY9ASRUGW4Ot3JKpJPSW" name="Page-1">
        <mxGraphModel dx="1216" dy="552" grid="1" gridSize="10" guides="1" tooltips="1" connect="1" arrows="1" fold="1" page="1" pageScale="1" pageWidth="850" pageHeight="1100" math="0" shadow="0">
            <root>
                <mxCell id="0"/>
                <mxCell id="1" parent="0"/>
                <mxCell id="168" value="" style="rounded=1;whiteSpace=wrap;html=1;fillColor=#fff2cc;strokeColor=#d6b656;" vertex="1" parent="1">
                    <mxGeometry x="640" y="197" width="120" height="180" as="geometry"/>
                </mxCell>
                <mxCell id="117" value="" style="rounded=1;whiteSpace=wrap;html=1;fillColor=#fff2cc;strokeColor=#d6b656;" vertex="1" parent="1">
                    <mxGeometry x="258" y="40" width="165" height="470" as="geometry"/>
                </mxCell>
                <mxCell id="16" value="" style="edgeStyle=none;html=1;" edge="1" parent="1" source="4" target="6">
                    <mxGeometry relative="1" as="geometry"/>
                </mxCell>
                <mxCell id="4" value="" style="shape=image;imageAspect=0;aspect=fixed;verticalLabelPosition=bottom;verticalAlign=top;image=data:image/png,iVBORw0KGgoAAAANSUhEUgAAACAAAAAgCAIAAAD8GO2jAAAJHklEQVR4nIWWyW+cdxnHn9/ybrN7Zjy2M544i+24TdKkadPS7YQAVYgeCKJFBbVCSJRWiBvQP4ADBw6AxIFLkapSyqJCughQKW1ICtnbLM5mO+PEnhnP8s6M591/y8MhRTRSl+f6PM/380jfw/MliAifWoiotSIAQCgCRlKO/FG5UCYECAACIAABQEQAZEAIIR9dJ58OuNW9taO1lkKsryyHo1HOMaSIUUnbsiw7xVNjqdI4sw1EpJR+VIF/hjqiVPpGo3Xx4sWb9eXLi4uXzp2NwsAQKg4jncSWYTxYnXr0a1+3a7Oz+/blahP0dpGPB9w6XCPqKFzbcF987W+/O/z6YPWK13GDUZcxCtwkGjSRSsspxq1de9uBaJ8+NzfavnXnFttyCP1QmX4SABEJ6man95d/nfnDW8f6A9f1PEVJykkRICSJQEU0UZak+VzWLleKta2xwd3eoLfaJPB/Gz4eQAjRWnsj/8Tl1RcOv7kxGII/MBzbLOelEgBAM1kcG8NaFccLPGubBrdN03Isns4M20ORxJ8BuFXnLl556fBbvW6DCtfrd5jlJABaayDEmthqbZt3JqYdK5UfyzPObcpz3EbTDBGGbv8TAajjWEktwvVm8+j5S2evX4qYVKCkDgkg6Q2ZZohaigTjRPubcbOXyhYIsZxcNlOejP2YOk67fiNWkZbqNpNvGSvRYgykZu9fvH762k1MqO2B9pJYmSwJRkGfAlJi6WZDbYA1OW0aloUUw2j99d/TUkHuuBss22+PcOCTsbGPAeDIvfbGi4OpvedWG0dOvhO366rdtpRXcFI8YmDQGCJDqUSaCjDqtmwaaqX/9LPnx468yh55rPj4NkrHtJ/4q02jUGC3AwAI8Yfdqy/9/Ky1i0wtPL1tfnp+IWUZaQSMN+XGjaDT3fC8pL/mKZkQ6qlNbWX1jSuvNt290/fOz9xNB8MEMeq4FhH37JlnjBFEVIhEJwhUxXHr8mLjr69ZcwdKO3ekp6pITOptqnZbrKz4y5c2V9Zk61rs3vS9dh9VtrowduDh5aNv6W//aLKwxSCJ1+11RyO26W9h6sA3nxjfsZUgolKJJKbo9doXz0tuj5er8XAoVpaSpffDG+eSTnvo9XVvEMqIK86tMTQd4q2xhb1zT/ywu36hdfXknqeex/VmNBpyJLGWdDNU6zcyB/dMHfoqBwBNqH/x3633jvFB4Hev99p12Xdx2E0CL0kSmiQCgTNixzQG0lPDvkxP5Gp37v4iEpMnxsyjj/MAg/4IXC/RCk3GRjEBe3PxSvmxgCOgVPrYP/5p/+fNitBYKJnlraR8501fFSYmd5UnYn8g+oNms16XSYeQuLClizhTrvAkhLBh75jyT5xqum9I10U/FIypfG4sAjDTMci4tcEBQcbh+Shn73l862YrG3YjnjvZbowq093jxx+oTeggVulUt7JdmE6uMjVRHPNWV/r100un3s2cv7Nn2Nn3341YzAXliNpgmHFUnDArAzwTdL/LEWAQ+lHcYZmy64sSSxwIamnnSoifP7h/nikk5k0/CGlqEHT52qBzJYjd7ujyMdNz3zxz/Jib/Hi2kI8p0iTiSBF5EAqiIR5xonU84gCg1urlqx/k0ulKbX7Lwft5sVBMot1hUilmiJd4Qk1cXc5cXoJm3a1f6EWBUEHGsdjE9uXAcPN6yVJ3ZRLqDkxJNMWES4MSEvO1AHeMPA4A/tlj92u0CKdR9NtXXj7TbtgGZ1IFcaiQfP/eB0qel+/cHG6ua+6BCr2RaCZg06Dhk1Q2sxFEwURBV/MKgSvF4yCx+TCVfmGpMddyOQAA+jReJ0OtkmBltf76qQ8ACUFkhGdT9ndSmbi/JpI+xDFVoqtVU1EjFIba3PPIV663Wmrtsl+vJxQpSk2YALApYXbxRpK6ttHhBCBTmT4f9VVgJwHfjMI0pYqAIoQCMk6OjDYylEuWClNpC1jObXEmC7Y1SpdKtWphS23UuuKQiKAmimgQNsU0I31Dzt/7EBSzHAiRqeJ75o4TN4f19cua0Ey5CIwCo5xAoulv6m0hQfvhvr337b9jX/bIKzRxkUhRSbXWm6VyRZbH/W5XS6pRacJQgUbdJDg3t3eiOsMR0ZmozizsOu1f6y0LZvJ01smajkU4gHKSpBWiiEZa6B7xzIJU6XTQ7TiRKs3O8dq2XC7XtTM9AWFMFAIlYDGGptG1c4WMA4bDASCTTc0mm58v5+cP7PeGm3EUUUQKItEqbRFjuuZYxalSNWMaM41Wx3PBZiaQVd+rjlfSKcsZK6fbmdLkFEPkjHND8zi4nMpZWXOsXOaEEAA6016+Z3yvMbcQGkRzAK2IVqg1RQIaidCJH0B9qXn1jIcRMbhgfGM4mlDy+vUbk+PFnQ2nNrddCRJ3XNVr+F5LCbs2Wc1kUhwAVGrsnWG/v/SSQArKIchDCb5EiH0uI0SkIKXWIwVCUT+yN4Exygywdi/MdbuF9/748jtr7rD+tkTqUWLYhqHIzQju8bWUihMAK515NZy8cLUBvgxhM1KCIKtOTFUmpyKSSIky0QSICvRar6m0pyk6mh2000ePHpmbW0hy5Yd/8muRcnQqZTqW8IMfPPs95Xv3uY375QJHRMrNhdkdixeOU8bSgpoCvvXU0888+9zk1FSipJRC6giQrC6tPPnEN/p9qpSQlDQbjela1Vit1+ZqX376Sfa/x+V7o5+Wx1eWV5JeO5NOUwCwDOtLX3jUMlNgAFi6OFF85rlnd+/ZXSoVpyqV2pbq9umd22s7PvfgQ/O79wBn1dqMaVrt5urs7Kw76O/bsy8O/DAMldJKKm4Yd9y12/UGR97+ezab5UKIfr+/pVqtVWcXFxeFUFOV8ZMnzp46ddr3fSGEECIMQ8/z4jh2e24YhokQSZL4vv+rX/5CA1y/uvj64T9ns9lyuZzP5/P5fK1WO3To0P79+3u9HvE8z3Xd1dXVVqvd6XSiMFSKjLxRHHthGAohoiiKoiiOY6UUY4wQQghhlDLODcMsFovF4lilUikUCplMplQq2badz+fL5TJjTClFlFIAoJRijFJKAVBrUOrWq8YPowbirTGt9YdxilLGGKWEUmoY5m3JClEpdStjE0L+C5hgk8V+ArR9AAAAAElFTkSuQmCC;" vertex="1" parent="1">
                    <mxGeometry x="72.75" y="40" width="80" height="80" as="geometry"/>
                </mxCell>
                <mxCell id="5" value="" style="rounded=1;whiteSpace=wrap;html=1;fillColor=#fff2cc;strokeColor=#d6b656;" vertex="1" parent="1">
                    <mxGeometry x="38" y="160" width="150" height="200" as="geometry"/>
                </mxCell>
                <mxCell id="6" value="Block 1" style="rounded=1;whiteSpace=wrap;html=1;fillColor=#e1d5e7;strokeColor=#9673a6;" vertex="1" parent="1">
                    <mxGeometry x="53" y="200" width="120" height="20" as="geometry"/>
                </mxCell>
                <mxCell id="7" value="Block 2" style="rounded=1;whiteSpace=wrap;html=1;fillColor=#e1d5e7;strokeColor=#9673a6;" vertex="1" parent="1">
                    <mxGeometry x="53" y="240" width="120" height="20" as="geometry"/>
                </mxCell>
                <mxCell id="8" style="edgeStyle=none;html=1;exitX=0.5;exitY=1;exitDx=0;exitDy=0;entryX=0.5;entryY=0;entryDx=0;entryDy=0;" edge="1" parent="1" source="6" target="7">
                    <mxGeometry relative="1" as="geometry"/>
                </mxCell>
                <mxCell id="9" value="..." style="rounded=1;whiteSpace=wrap;html=1;fillColor=#e1d5e7;strokeColor=#9673a6;" vertex="1" parent="1">
                    <mxGeometry x="53" y="280" width="120" height="20" as="geometry"/>
                </mxCell>
                <mxCell id="10" style="edgeStyle=none;html=1;exitX=0.5;exitY=1;exitDx=0;exitDy=0;entryX=0.5;entryY=0;entryDx=0;entryDy=0;" edge="1" parent="1" source="7" target="9">
                    <mxGeometry relative="1" as="geometry"/>
                </mxCell>
                <mxCell id="11" value="Block n" style="rounded=1;whiteSpace=wrap;html=1;fillColor=#e1d5e7;strokeColor=#9673a6;" vertex="1" parent="1">
                    <mxGeometry x="53" y="320" width="120" height="20" as="geometry"/>
                </mxCell>
                <mxCell id="12" style="edgeStyle=none;html=1;exitX=0.5;exitY=1;exitDx=0;exitDy=0;entryX=0.5;entryY=0;entryDx=0;entryDy=0;" edge="1" parent="1" source="9" target="11">
                    <mxGeometry relative="1" as="geometry"/>
                </mxCell>
                <mxCell id="14" value="" style="shape=flexArrow;endArrow=classic;html=1;exitX=0.5;exitY=1;exitDx=0;exitDy=0;fillColor=#1ba1e2;strokeColor=#006EAF;" edge="1" parent="1" source="4" target="5">
                    <mxGeometry width="50" height="50" relative="1" as="geometry">
                        <mxPoint x="123" y="130" as="sourcePoint"/>
                        <mxPoint x="233" y="300" as="targetPoint"/>
                    </mxGeometry>
                </mxCell>
                <mxCell id="28" value="" style="group" vertex="1" connectable="0" parent="1">
                    <mxGeometry x="23" y="400" width="179.5" height="137" as="geometry"/>
                </mxCell>
                <mxCell id="17" value="" style="endArrow=classic;startArrow=classic;html=1;dashed=1;" edge="1" parent="28">
                    <mxGeometry width="50" height="50" relative="1" as="geometry">
                        <mxPoint x="130" y="4" as="sourcePoint"/>
                        <mxPoint x="150" y="34" as="targetPoint"/>
                    </mxGeometry>
                </mxCell>
                <mxCell id="18" value="" style="endArrow=classic;startArrow=classic;html=1;dashed=1;" edge="1" parent="28">
                    <mxGeometry width="50" height="50" relative="1" as="geometry">
                        <mxPoint x="60" y="104" as="sourcePoint"/>
                        <mxPoint x="130" y="104" as="targetPoint"/>
                    </mxGeometry>
                </mxCell>
                <mxCell id="21" value="" style="whiteSpace=wrap;html=1;aspect=fixed;fillColor=#f0a30a;strokeColor=#BD7000;fontColor=#000000;" vertex="1" parent="28">
                    <mxGeometry x="56.5" y="7" width="53" height="53" as="geometry"/>
                </mxCell>
                <mxCell id="22" value="" style="whiteSpace=wrap;html=1;aspect=fixed;fillColor=#e3c800;strokeColor=#B09500;fontColor=#000000;" vertex="1" parent="28">
                    <mxGeometry x="66.5" y="17" width="53" height="53" as="geometry"/>
                </mxCell>
                <mxCell id="23" value="" style="whiteSpace=wrap;html=1;aspect=fixed;fillColor=#a0522d;strokeColor=#6D1F00;fontColor=#ffffff;" vertex="1" parent="28">
                    <mxGeometry x="76.5" y="27" width="53" height="53" as="geometry"/>
                </mxCell>
                <mxCell id="24" value="" style="whiteSpace=wrap;html=1;aspect=fixed;fillColor=#647687;strokeColor=#314354;fontColor=#ffffff;" vertex="1" parent="28">
                    <mxGeometry x="86.5" y="37" width="53" height="53" as="geometry"/>
                </mxCell>
                <mxCell id="25" value="&lt;font style=&quot;font-size: 18px;&quot;&gt;c&lt;/font&gt;" style="text;html=1;strokeColor=none;fillColor=none;align=center;verticalAlign=middle;whiteSpace=wrap;rounded=0;" vertex="1" parent="28">
                    <mxGeometry x="119.5" width="60" height="30" as="geometry"/>
                </mxCell>
                <mxCell id="26" value="&lt;font style=&quot;font-size: 18px;&quot;&gt;w&lt;/font&gt;" style="text;html=1;strokeColor=none;fillColor=none;align=center;verticalAlign=middle;whiteSpace=wrap;rounded=0;" vertex="1" parent="28">
                    <mxGeometry x="66.5" y="107" width="60" height="30" as="geometry"/>
                </mxCell>
                <mxCell id="31" value="" style="shape=flexArrow;endArrow=classic;html=1;fillColor=#1ba1e2;strokeColor=#006EAF;exitX=0.5;exitY=1;exitDx=0;exitDy=0;" edge="1" parent="1" source="5">
                    <mxGeometry width="50" height="50" relative="1" as="geometry">
                        <mxPoint x="113" y="370" as="sourcePoint"/>
                        <mxPoint x="113" y="400" as="targetPoint"/>
                    </mxGeometry>
                </mxCell>
                <mxCell id="72" value="" style="group" vertex="1" connectable="0" parent="1">
                    <mxGeometry x="491" y="197" width="110" height="70" as="geometry"/>
                </mxCell>
                <mxCell id="73" value="" style="shape=cube;whiteSpace=wrap;html=1;boundedLbl=1;backgroundOutline=1;darkOpacity=0.05;darkOpacity2=0.1;size=10;fillColor=#f0a30a;fontColor=#000000;strokeColor=#BD7000;" vertex="1" parent="72">
                    <mxGeometry y="20" width="30" height="20" as="geometry"/>
                </mxCell>
                <mxCell id="74" value="" style="shape=cube;whiteSpace=wrap;html=1;boundedLbl=1;backgroundOutline=1;darkOpacity=0.05;darkOpacity2=0.1;size=10;fillColor=#e3c800;fontColor=#000000;strokeColor=#B09500;" vertex="1" parent="72">
                    <mxGeometry x="10" y="30" width="30" height="20" as="geometry"/>
                </mxCell>
                <mxCell id="75" value="" style="shape=cube;whiteSpace=wrap;html=1;boundedLbl=1;backgroundOutline=1;darkOpacity=0.05;darkOpacity2=0.1;size=10;fillColor=#a0522d;fontColor=#ffffff;strokeColor=#6D1F00;" vertex="1" parent="72">
                    <mxGeometry x="20" y="40" width="30" height="20" as="geometry"/>
                </mxCell>
                <mxCell id="76" value="" style="shape=cube;whiteSpace=wrap;html=1;boundedLbl=1;backgroundOutline=1;darkOpacity=0.05;darkOpacity2=0.1;size=10;fillColor=#647687;fontColor=#ffffff;strokeColor=#314354;" vertex="1" parent="72">
                    <mxGeometry x="30" y="50" width="30" height="20" as="geometry"/>
                </mxCell>
                <mxCell id="77" value="" style="group" vertex="1" connectable="0" parent="72">
                    <mxGeometry x="40" y="20" width="60" height="50" as="geometry"/>
                </mxCell>
                <mxCell id="78" value="" style="shape=cube;whiteSpace=wrap;html=1;boundedLbl=1;backgroundOutline=1;darkOpacity=0.05;darkOpacity2=0.1;size=10;fillColor=#f0a30a;fontColor=#000000;strokeColor=#BD7000;" vertex="1" parent="77">
                    <mxGeometry width="30" height="20" as="geometry"/>
                </mxCell>
                <mxCell id="79" value="" style="shape=cube;whiteSpace=wrap;html=1;boundedLbl=1;backgroundOutline=1;darkOpacity=0.05;darkOpacity2=0.1;size=10;fillColor=#e3c800;fontColor=#000000;strokeColor=#B09500;" vertex="1" parent="77">
                    <mxGeometry x="10" y="10" width="30" height="20" as="geometry"/>
                </mxCell>
                <mxCell id="80" value="" style="shape=cube;whiteSpace=wrap;html=1;boundedLbl=1;backgroundOutline=1;darkOpacity=0.05;darkOpacity2=0.1;size=10;fillColor=#a0522d;fontColor=#ffffff;strokeColor=#6D1F00;" vertex="1" parent="77">
                    <mxGeometry x="20" y="20" width="30" height="20" as="geometry"/>
                </mxCell>
                <mxCell id="81" value="" style="shape=cube;whiteSpace=wrap;html=1;boundedLbl=1;backgroundOutline=1;darkOpacity=0.05;darkOpacity2=0.1;size=10;fillColor=#647687;fontColor=#ffffff;strokeColor=#314354;" vertex="1" parent="77">
                    <mxGeometry x="30" y="30" width="30" height="20" as="geometry"/>
                </mxCell>
                <mxCell id="82" value="" style="group" vertex="1" connectable="0" parent="72">
                    <mxGeometry x="10" width="60" height="50" as="geometry"/>
                </mxCell>
                <mxCell id="83" value="" style="shape=cube;whiteSpace=wrap;html=1;boundedLbl=1;backgroundOutline=1;darkOpacity=0.05;darkOpacity2=0.1;size=10;fillColor=#f0a30a;fontColor=#000000;strokeColor=#BD7000;" vertex="1" parent="82">
                    <mxGeometry width="30" height="20" as="geometry"/>
                </mxCell>
                <mxCell id="84" value="" style="shape=cube;whiteSpace=wrap;html=1;boundedLbl=1;backgroundOutline=1;darkOpacity=0.05;darkOpacity2=0.1;size=10;fillColor=#e3c800;fontColor=#000000;strokeColor=#B09500;" vertex="1" parent="82">
                    <mxGeometry x="10" y="10" width="30" height="20" as="geometry"/>
                </mxCell>
                <mxCell id="85" value="" style="shape=cube;whiteSpace=wrap;html=1;boundedLbl=1;backgroundOutline=1;darkOpacity=0.05;darkOpacity2=0.1;size=10;fillColor=#a0522d;fontColor=#ffffff;strokeColor=#6D1F00;" vertex="1" parent="82">
                    <mxGeometry x="20" y="20" width="30" height="20" as="geometry"/>
                </mxCell>
                <mxCell id="86" value="" style="shape=cube;whiteSpace=wrap;html=1;boundedLbl=1;backgroundOutline=1;darkOpacity=0.05;darkOpacity2=0.1;size=10;fillColor=#647687;fontColor=#ffffff;strokeColor=#314354;" vertex="1" parent="82">
                    <mxGeometry x="30" y="30" width="30" height="20" as="geometry"/>
                </mxCell>
                <mxCell id="87" value="" style="group" vertex="1" connectable="0" parent="72">
                    <mxGeometry x="50" width="60" height="50" as="geometry"/>
                </mxCell>
                <mxCell id="88" value="" style="shape=cube;whiteSpace=wrap;html=1;boundedLbl=1;backgroundOutline=1;darkOpacity=0.05;darkOpacity2=0.1;size=10;fillColor=#f0a30a;fontColor=#000000;strokeColor=#BD7000;" vertex="1" parent="87">
                    <mxGeometry width="30" height="20" as="geometry"/>
                </mxCell>
                <mxCell id="89" value="" style="shape=cube;whiteSpace=wrap;html=1;boundedLbl=1;backgroundOutline=1;darkOpacity=0.05;darkOpacity2=0.1;size=10;fillColor=#e3c800;fontColor=#000000;strokeColor=#B09500;" vertex="1" parent="87">
                    <mxGeometry x="10" y="10" width="30" height="20" as="geometry"/>
                </mxCell>
                <mxCell id="90" value="" style="shape=cube;whiteSpace=wrap;html=1;boundedLbl=1;backgroundOutline=1;darkOpacity=0.05;darkOpacity2=0.1;size=10;fillColor=#a0522d;fontColor=#ffffff;strokeColor=#6D1F00;" vertex="1" parent="87">
                    <mxGeometry x="20" y="20" width="30" height="20" as="geometry"/>
                </mxCell>
                <mxCell id="91" value="" style="shape=cube;whiteSpace=wrap;html=1;boundedLbl=1;backgroundOutline=1;darkOpacity=0.05;darkOpacity2=0.1;size=10;fillColor=#647687;fontColor=#ffffff;strokeColor=#314354;" vertex="1" parent="87">
                    <mxGeometry x="30" y="30" width="30" height="20" as="geometry"/>
                </mxCell>
                <mxCell id="92" value="" style="group" vertex="1" connectable="0" parent="1">
                    <mxGeometry x="485" y="84" width="110" height="70" as="geometry"/>
                </mxCell>
                <mxCell id="93" value="" style="shape=cube;whiteSpace=wrap;html=1;boundedLbl=1;backgroundOutline=1;darkOpacity=0.05;darkOpacity2=0.1;size=10;fillColor=#f0a30a;fontColor=#000000;strokeColor=#BD7000;" vertex="1" parent="92">
                    <mxGeometry y="20" width="30" height="20" as="geometry"/>
                </mxCell>
                <mxCell id="94" value="" style="shape=cube;whiteSpace=wrap;html=1;boundedLbl=1;backgroundOutline=1;darkOpacity=0.05;darkOpacity2=0.1;size=10;fillColor=#e3c800;fontColor=#000000;strokeColor=#B09500;" vertex="1" parent="92">
                    <mxGeometry x="10" y="30" width="30" height="20" as="geometry"/>
                </mxCell>
                <mxCell id="95" value="" style="shape=cube;whiteSpace=wrap;html=1;boundedLbl=1;backgroundOutline=1;darkOpacity=0.05;darkOpacity2=0.1;size=10;fillColor=#a0522d;fontColor=#ffffff;strokeColor=#6D1F00;" vertex="1" parent="92">
                    <mxGeometry x="20" y="40" width="30" height="20" as="geometry"/>
                </mxCell>
                <mxCell id="96" value="" style="shape=cube;whiteSpace=wrap;html=1;boundedLbl=1;backgroundOutline=1;darkOpacity=0.05;darkOpacity2=0.1;size=10;fillColor=#647687;fontColor=#ffffff;strokeColor=#314354;" vertex="1" parent="92">
                    <mxGeometry x="30" y="50" width="30" height="20" as="geometry"/>
                </mxCell>
                <mxCell id="97" value="" style="group" vertex="1" connectable="0" parent="92">
                    <mxGeometry x="40" y="20" width="60" height="50" as="geometry"/>
                </mxCell>
                <mxCell id="98" value="" style="shape=cube;whiteSpace=wrap;html=1;boundedLbl=1;backgroundOutline=1;darkOpacity=0.05;darkOpacity2=0.1;size=10;fillColor=#f0a30a;fontColor=#000000;strokeColor=#BD7000;" vertex="1" parent="97">
                    <mxGeometry width="30" height="20" as="geometry"/>
                </mxCell>
                <mxCell id="99" value="" style="shape=cube;whiteSpace=wrap;html=1;boundedLbl=1;backgroundOutline=1;darkOpacity=0.05;darkOpacity2=0.1;size=10;fillColor=#e3c800;fontColor=#000000;strokeColor=#B09500;" vertex="1" parent="97">
                    <mxGeometry x="10" y="10" width="30" height="20" as="geometry"/>
                </mxCell>
                <mxCell id="100" value="" style="shape=cube;whiteSpace=wrap;html=1;boundedLbl=1;backgroundOutline=1;darkOpacity=0.05;darkOpacity2=0.1;size=10;fillColor=#a0522d;fontColor=#ffffff;strokeColor=#6D1F00;" vertex="1" parent="97">
                    <mxGeometry x="20" y="20" width="30" height="20" as="geometry"/>
                </mxCell>
                <mxCell id="101" value="" style="shape=cube;whiteSpace=wrap;html=1;boundedLbl=1;backgroundOutline=1;darkOpacity=0.05;darkOpacity2=0.1;size=10;fillColor=#647687;fontColor=#ffffff;strokeColor=#314354;" vertex="1" parent="97">
                    <mxGeometry x="30" y="30" width="30" height="20" as="geometry"/>
                </mxCell>
                <mxCell id="102" value="" style="group" vertex="1" connectable="0" parent="92">
                    <mxGeometry x="10" width="60" height="50" as="geometry"/>
                </mxCell>
                <mxCell id="103" value="" style="shape=cube;whiteSpace=wrap;html=1;boundedLbl=1;backgroundOutline=1;darkOpacity=0.05;darkOpacity2=0.1;size=10;fillColor=#f0a30a;fontColor=#000000;strokeColor=#BD7000;" vertex="1" parent="102">
                    <mxGeometry width="30" height="20" as="geometry"/>
                </mxCell>
                <mxCell id="104" value="" style="shape=cube;whiteSpace=wrap;html=1;boundedLbl=1;backgroundOutline=1;darkOpacity=0.05;darkOpacity2=0.1;size=10;fillColor=#e3c800;fontColor=#000000;strokeColor=#B09500;" vertex="1" parent="102">
                    <mxGeometry x="10" y="10" width="30" height="20" as="geometry"/>
                </mxCell>
                <mxCell id="105" value="" style="shape=cube;whiteSpace=wrap;html=1;boundedLbl=1;backgroundOutline=1;darkOpacity=0.05;darkOpacity2=0.1;size=10;fillColor=#a0522d;fontColor=#ffffff;strokeColor=#6D1F00;" vertex="1" parent="102">
                    <mxGeometry x="20" y="20" width="30" height="20" as="geometry"/>
                </mxCell>
                <mxCell id="106" value="" style="shape=cube;whiteSpace=wrap;html=1;boundedLbl=1;backgroundOutline=1;darkOpacity=0.05;darkOpacity2=0.1;size=10;fillColor=#647687;fontColor=#ffffff;strokeColor=#314354;" vertex="1" parent="102">
                    <mxGeometry x="30" y="30" width="30" height="20" as="geometry"/>
                </mxCell>
                <mxCell id="107" value="" style="group" vertex="1" connectable="0" parent="92">
                    <mxGeometry x="50" width="60" height="50" as="geometry"/>
                </mxCell>
                <mxCell id="108" value="" style="shape=cube;whiteSpace=wrap;html=1;boundedLbl=1;backgroundOutline=1;darkOpacity=0.05;darkOpacity2=0.1;size=10;fillColor=#f0a30a;fontColor=#000000;strokeColor=#BD7000;" vertex="1" parent="107">
                    <mxGeometry width="30" height="20" as="geometry"/>
                </mxCell>
                <mxCell id="109" value="" style="shape=cube;whiteSpace=wrap;html=1;boundedLbl=1;backgroundOutline=1;darkOpacity=0.05;darkOpacity2=0.1;size=10;fillColor=#e3c800;fontColor=#000000;strokeColor=#B09500;" vertex="1" parent="107">
                    <mxGeometry x="10" y="10" width="30" height="20" as="geometry"/>
                </mxCell>
                <mxCell id="110" value="" style="shape=cube;whiteSpace=wrap;html=1;boundedLbl=1;backgroundOutline=1;darkOpacity=0.05;darkOpacity2=0.1;size=10;fillColor=#a0522d;fontColor=#ffffff;strokeColor=#6D1F00;" vertex="1" parent="107">
                    <mxGeometry x="20" y="20" width="30" height="20" as="geometry"/>
                </mxCell>
                <mxCell id="111" value="" style="shape=cube;whiteSpace=wrap;html=1;boundedLbl=1;backgroundOutline=1;darkOpacity=0.05;darkOpacity2=0.1;size=10;fillColor=#647687;fontColor=#ffffff;strokeColor=#314354;" vertex="1" parent="107">
                    <mxGeometry x="30" y="30" width="30" height="20" as="geometry"/>
                </mxCell>
                <mxCell id="191" value="" style="endArrow=classic;startArrow=classic;html=1;dashed=1;" edge="1" parent="107">
                    <mxGeometry width="50" height="50" relative="1" as="geometry">
                        <mxPoint x="40" y="-10" as="sourcePoint"/>
                        <mxPoint x="70" y="30" as="targetPoint"/>
                        <Array as="points">
                            <mxPoint x="50"/>
                        </Array>
                    </mxGeometry>
                </mxCell>
                <mxCell id="114" value="Pooling" style="shape=trapezoid;perimeter=trapezoidPerimeter;whiteSpace=wrap;html=1;fixedSize=1;rotation=90;fillColor=#f8cecc;strokeColor=#b85450;" vertex="1" parent="1">
                    <mxGeometry x="268" y="100" width="70" height="50" as="geometry"/>
                </mxCell>
                <mxCell id="115" value="Pooling" style="shape=trapezoid;perimeter=trapezoidPerimeter;whiteSpace=wrap;html=1;fixedSize=1;rotation=90;fillColor=#f8cecc;strokeColor=#b85450;" vertex="1" parent="1">
                    <mxGeometry x="268" y="210" width="70" height="50" as="geometry"/>
                </mxCell>
                <mxCell id="126" value="" style="group" vertex="1" connectable="0" parent="1">
                    <mxGeometry x="508" y="304" width="90" height="80" as="geometry"/>
                </mxCell>
                <mxCell id="36" value="" style="shape=cube;whiteSpace=wrap;html=1;boundedLbl=1;backgroundOutline=1;darkOpacity=0.05;darkOpacity2=0.1;size=10;fillColor=#f0a30a;fontColor=#000000;strokeColor=#BD7000;" vertex="1" parent="126">
                    <mxGeometry width="60" height="50" as="geometry"/>
                </mxCell>
                <mxCell id="122" value="" style="shape=cube;whiteSpace=wrap;html=1;boundedLbl=1;backgroundOutline=1;darkOpacity=0.05;darkOpacity2=0.1;size=10;fillColor=#e3c800;fontColor=#000000;strokeColor=#B09500;" vertex="1" parent="126">
                    <mxGeometry x="10" y="10" width="60" height="50" as="geometry"/>
                </mxCell>
                <mxCell id="124" value="" style="shape=cube;whiteSpace=wrap;html=1;boundedLbl=1;backgroundOutline=1;darkOpacity=0.05;darkOpacity2=0.1;size=10;fillColor=#a0522d;fontColor=#ffffff;strokeColor=#6D1F00;" vertex="1" parent="126">
                    <mxGeometry x="20" y="20" width="60" height="50" as="geometry"/>
                </mxCell>
                <mxCell id="125" value="" style="shape=cube;whiteSpace=wrap;html=1;boundedLbl=1;backgroundOutline=1;darkOpacity=0.05;darkOpacity2=0.1;size=10;fillColor=#647687;fontColor=#ffffff;strokeColor=#314354;" vertex="1" parent="126">
                    <mxGeometry x="30" y="30" width="60" height="50" as="geometry"/>
                </mxCell>
                <mxCell id="127" value="Projection" style="shape=delay;whiteSpace=wrap;html=1;fillColor=#e1d5e7;strokeColor=#9673a6;" vertex="1" parent="1">
                    <mxGeometry x="331" y="217.5" width="65" height="35" as="geometry"/>
                </mxCell>
                <mxCell id="128" value="Projection" style="shape=delay;whiteSpace=wrap;html=1;fillColor=#e1d5e7;strokeColor=#9673a6;" vertex="1" parent="1">
                    <mxGeometry x="283" y="300" width="110" height="70" as="geometry"/>
                </mxCell>
                <mxCell id="129" value="Projection" style="shape=delay;whiteSpace=wrap;html=1;fillColor=#e1d5e7;strokeColor=#9673a6;" vertex="1" parent="1">
                    <mxGeometry x="267" y="420" width="66" height="70" as="geometry"/>
                </mxCell>
                <mxCell id="130" value="" style="endArrow=classic;html=1;entryX=0;entryY=0.5;entryDx=0;entryDy=0;exitX=0.5;exitY=0;exitDx=0;exitDy=0;" edge="1" parent="1" source="114" target="131">
                    <mxGeometry width="50" height="50" relative="1" as="geometry">
                        <mxPoint x="379" y="126" as="sourcePoint"/>
                        <mxPoint x="419" y="126" as="targetPoint"/>
                    </mxGeometry>
                </mxCell>
                <mxCell id="131" value="" style="shape=lineEllipse;perimeter=ellipsePerimeter;whiteSpace=wrap;html=1;backgroundOutline=1;" vertex="1" parent="1">
                    <mxGeometry x="412" y="116" width="20" height="20" as="geometry"/>
                </mxCell>
                <mxCell id="133" value="" style="endArrow=classic;html=1;" edge="1" parent="1">
                    <mxGeometry width="50" height="50" relative="1" as="geometry">
                        <mxPoint x="429" y="126" as="sourcePoint"/>
                        <mxPoint x="479" y="106" as="targetPoint"/>
                    </mxGeometry>
                </mxCell>
                <mxCell id="134" value="" style="endArrow=classic;html=1;" edge="1" parent="1">
                    <mxGeometry width="50" height="50" relative="1" as="geometry">
                        <mxPoint x="429" y="126" as="sourcePoint"/>
                        <mxPoint x="479" y="126" as="targetPoint"/>
                    </mxGeometry>
                </mxCell>
                <mxCell id="135" value="" style="endArrow=classic;html=1;" edge="1" parent="1">
                    <mxGeometry width="50" height="50" relative="1" as="geometry">
                        <mxPoint x="429" y="126" as="sourcePoint"/>
                        <mxPoint x="479" y="146" as="targetPoint"/>
                    </mxGeometry>
                </mxCell>
                <mxCell id="136" value="channel split" style="text;html=1;strokeColor=none;fillColor=none;align=center;verticalAlign=middle;whiteSpace=wrap;rounded=0;" vertex="1" parent="1">
                    <mxGeometry x="377" y="136" width="90" height="30" as="geometry"/>
                </mxCell>
                <mxCell id="138" value="" style="endArrow=classic;html=1;entryX=0;entryY=0.5;entryDx=0;entryDy=0;exitX=1;exitY=0.5;exitDx=0;exitDy=0;" edge="1" parent="1" target="139" source="127">
                    <mxGeometry width="50" height="50" relative="1" as="geometry">
                        <mxPoint x="403" y="233" as="sourcePoint"/>
                        <mxPoint x="423" y="233" as="targetPoint"/>
                    </mxGeometry>
                </mxCell>
                <mxCell id="139" value="" style="shape=lineEllipse;perimeter=ellipsePerimeter;whiteSpace=wrap;html=1;backgroundOutline=1;" vertex="1" parent="1">
                    <mxGeometry x="416" y="225" width="20" height="20" as="geometry"/>
                </mxCell>
                <mxCell id="140" value="" style="endArrow=classic;html=1;" edge="1" parent="1">
                    <mxGeometry width="50" height="50" relative="1" as="geometry">
                        <mxPoint x="433" y="235" as="sourcePoint"/>
                        <mxPoint x="483" y="215" as="targetPoint"/>
                    </mxGeometry>
                </mxCell>
                <mxCell id="141" value="" style="endArrow=classic;html=1;" edge="1" parent="1">
                    <mxGeometry width="50" height="50" relative="1" as="geometry">
                        <mxPoint x="433" y="235" as="sourcePoint"/>
                        <mxPoint x="483" y="235" as="targetPoint"/>
                    </mxGeometry>
                </mxCell>
                <mxCell id="142" value="" style="endArrow=classic;html=1;" edge="1" parent="1">
                    <mxGeometry width="50" height="50" relative="1" as="geometry">
                        <mxPoint x="433" y="235" as="sourcePoint"/>
                        <mxPoint x="483" y="255" as="targetPoint"/>
                    </mxGeometry>
                </mxCell>
                <mxCell id="143" value="channel split" style="text;html=1;strokeColor=none;fillColor=none;align=center;verticalAlign=middle;whiteSpace=wrap;rounded=0;" vertex="1" parent="1">
                    <mxGeometry x="386" y="243" width="90" height="30" as="geometry"/>
                </mxCell>
                <mxCell id="144" value="" style="endArrow=classic;html=1;entryX=0;entryY=0.5;entryDx=0;entryDy=0;" edge="1" parent="1" target="145">
                    <mxGeometry width="50" height="50" relative="1" as="geometry">
                        <mxPoint x="393" y="340" as="sourcePoint"/>
                        <mxPoint x="424" y="338" as="targetPoint"/>
                    </mxGeometry>
                </mxCell>
                <mxCell id="145" value="" style="shape=lineEllipse;perimeter=ellipsePerimeter;whiteSpace=wrap;html=1;backgroundOutline=1;" vertex="1" parent="1">
                    <mxGeometry x="412" y="330" width="20" height="20" as="geometry"/>
                </mxCell>
                <mxCell id="146" value="" style="endArrow=classic;html=1;" edge="1" parent="1">
                    <mxGeometry width="50" height="50" relative="1" as="geometry">
                        <mxPoint x="434" y="340" as="sourcePoint"/>
                        <mxPoint x="484" y="320" as="targetPoint"/>
                    </mxGeometry>
                </mxCell>
                <mxCell id="147" value="" style="endArrow=classic;html=1;" edge="1" parent="1">
                    <mxGeometry width="50" height="50" relative="1" as="geometry">
                        <mxPoint x="434" y="340" as="sourcePoint"/>
                        <mxPoint x="484" y="340" as="targetPoint"/>
                    </mxGeometry>
                </mxCell>
                <mxCell id="148" value="" style="endArrow=classic;html=1;" edge="1" parent="1">
                    <mxGeometry width="50" height="50" relative="1" as="geometry">
                        <mxPoint x="434" y="340" as="sourcePoint"/>
                        <mxPoint x="484" y="360" as="targetPoint"/>
                    </mxGeometry>
                </mxCell>
                <mxCell id="149" value="channel split" style="text;html=1;strokeColor=none;fillColor=none;align=center;verticalAlign=middle;whiteSpace=wrap;rounded=0;" vertex="1" parent="1">
                    <mxGeometry x="386" y="350" width="90" height="30" as="geometry"/>
                </mxCell>
                <mxCell id="150" value="Reshape" style="shape=trapezoid;perimeter=trapezoidPerimeter;whiteSpace=wrap;html=1;fixedSize=1;rotation=90;fillColor=#f8cecc;strokeColor=#b85450;" vertex="1" parent="1">
                    <mxGeometry x="328.5" y="428" width="70" height="50" as="geometry"/>
                </mxCell>
                <mxCell id="151" value="" style="endArrow=classic;html=1;entryX=0;entryY=0.5;entryDx=0;entryDy=0;" edge="1" parent="1" target="152" source="150">
                    <mxGeometry width="50" height="50" relative="1" as="geometry">
                        <mxPoint x="408" y="453" as="sourcePoint"/>
                        <mxPoint x="439" y="451" as="targetPoint"/>
                    </mxGeometry>
                </mxCell>
                <mxCell id="152" value="" style="shape=lineEllipse;perimeter=ellipsePerimeter;whiteSpace=wrap;html=1;backgroundOutline=1;" vertex="1" parent="1">
                    <mxGeometry x="412" y="443" width="20" height="20" as="geometry"/>
                </mxCell>
                <mxCell id="153" value="" style="endArrow=classic;html=1;exitX=1;exitY=0.5;exitDx=0;exitDy=0;" edge="1" parent="1" source="152">
                    <mxGeometry width="50" height="50" relative="1" as="geometry">
                        <mxPoint x="449" y="453" as="sourcePoint"/>
                        <mxPoint x="483" y="430" as="targetPoint"/>
                    </mxGeometry>
                </mxCell>
                <mxCell id="154" value="" style="endArrow=classic;html=1;exitX=1;exitY=0.5;exitDx=0;exitDy=0;" edge="1" parent="1" source="152">
                    <mxGeometry width="50" height="50" relative="1" as="geometry">
                        <mxPoint x="443" y="453" as="sourcePoint"/>
                        <mxPoint x="483" y="453" as="targetPoint"/>
                    </mxGeometry>
                </mxCell>
                <mxCell id="155" value="" style="endArrow=classic;html=1;exitX=1;exitY=0.5;exitDx=0;exitDy=0;" edge="1" parent="1" source="152">
                    <mxGeometry width="50" height="50" relative="1" as="geometry">
                        <mxPoint x="449" y="453" as="sourcePoint"/>
                        <mxPoint x="483" y="473" as="targetPoint"/>
                    </mxGeometry>
                </mxCell>
                <mxCell id="156" value="feature map split" style="text;html=1;strokeColor=none;fillColor=none;align=center;verticalAlign=middle;whiteSpace=wrap;rounded=0;" vertex="1" parent="1">
                    <mxGeometry x="386" y="478" width="90" height="23" as="geometry"/>
                </mxCell>
                <mxCell id="157" value="" style="shape=flexArrow;endArrow=classic;html=1;exitX=1;exitY=0.5;exitDx=0;exitDy=0;entryX=0;entryY=0.5;entryDx=0;entryDy=0;fillColor=#1ba1e2;strokeColor=#006EAF;" edge="1" parent="1" source="24" target="117">
                    <mxGeometry width="50" height="50" relative="1" as="geometry">
                        <mxPoint x="430" y="350" as="sourcePoint"/>
                        <mxPoint x="480" y="300" as="targetPoint"/>
                        <Array as="points">
                            <mxPoint x="220" y="464"/>
                            <mxPoint x="220" y="275"/>
                        </Array>
                    </mxGeometry>
                </mxCell>
                <mxCell id="158" value="" style="shape=cube;whiteSpace=wrap;html=1;boundedLbl=1;backgroundOutline=1;darkOpacity=0.05;darkOpacity2=0.1;size=32;fillColor=#647687;fontColor=#ffffff;strokeColor=#314354;" vertex="1" parent="1">
                    <mxGeometry x="599" y="430" width="60" height="50" as="geometry"/>
                </mxCell>
                <mxCell id="159" value="" style="shape=cube;whiteSpace=wrap;html=1;boundedLbl=1;backgroundOutline=1;darkOpacity=0.05;darkOpacity2=0.1;size=32;fillColor=#a0522d;fontColor=#ffffff;strokeColor=#6D1F00;" vertex="1" parent="1">
                    <mxGeometry x="563" y="430" width="60" height="50" as="geometry"/>
                </mxCell>
                <mxCell id="161" value="" style="shape=cube;whiteSpace=wrap;html=1;boundedLbl=1;backgroundOutline=1;darkOpacity=0.05;darkOpacity2=0.1;size=30;fillColor=#f0a30a;fontColor=#000000;strokeColor=#BD7000;" vertex="1" parent="1">
                    <mxGeometry x="529" y="430" width="60" height="50" as="geometry"/>
                </mxCell>
                <mxCell id="160" value="" style="shape=cube;whiteSpace=wrap;html=1;boundedLbl=1;backgroundOutline=1;darkOpacity=0.05;darkOpacity2=0.1;size=30;fillColor=#e3c800;fontColor=#000000;strokeColor=#B09500;" vertex="1" parent="1">
                    <mxGeometry x="492" y="430" width="60" height="50" as="geometry"/>
                </mxCell>
                <mxCell id="164" value="" style="shape=flexArrow;endArrow=classic;html=1;fillColor=#b1ddf0;strokeColor=#10739e;" edge="1" parent="1">
                    <mxGeometry width="50" height="50" relative="1" as="geometry">
                        <mxPoint x="679" y="230" as="sourcePoint"/>
                        <mxPoint x="739" y="360" as="targetPoint"/>
                        <Array as="points">
                            <mxPoint x="739" y="230"/>
                        </Array>
                    </mxGeometry>
                </mxCell>
                <mxCell id="166" value="" style="shape=flexArrow;endArrow=classic;html=1;fillColor=#bac8d3;strokeColor=#23445d;" edge="1" parent="1">
                    <mxGeometry width="50" height="50" relative="1" as="geometry">
                        <mxPoint x="717" y="350" as="sourcePoint"/>
                        <mxPoint x="657" y="220" as="targetPoint"/>
                        <Array as="points">
                            <mxPoint x="657" y="350"/>
                        </Array>
                    </mxGeometry>
                </mxCell>
                <mxCell id="167" value="&lt;b&gt;Adaptive&lt;br&gt;Routing layer&lt;/b&gt;" style="text;html=1;strokeColor=none;fillColor=none;align=center;verticalAlign=middle;whiteSpace=wrap;rounded=0;" vertex="1" parent="1">
                    <mxGeometry x="669" y="270" width="60" height="30" as="geometry"/>
                </mxCell>
                <mxCell id="171" value="" style="shape=flexArrow;endArrow=classic;html=1;entryX=0;entryY=0.5;entryDx=0;entryDy=0;fillColor=#1ba1e2;strokeColor=#006EAF;" edge="1" parent="1" target="168">
                    <mxGeometry width="50" height="50" relative="1" as="geometry">
                        <mxPoint x="600" y="287" as="sourcePoint"/>
                        <mxPoint x="680" y="210" as="targetPoint"/>
                    </mxGeometry>
                </mxCell>
                <mxCell id="172" value="&lt;b&gt;Primary Capsule&lt;/b&gt;" style="text;html=1;strokeColor=none;fillColor=none;align=center;verticalAlign=middle;whiteSpace=wrap;rounded=0;" vertex="1" parent="1">
                    <mxGeometry x="290" y="54" width="110" height="30" as="geometry"/>
                </mxCell>
                <mxCell id="173" value="&lt;b&gt;Backbone&lt;/b&gt;" style="text;html=1;strokeColor=none;fillColor=none;align=center;verticalAlign=middle;whiteSpace=wrap;rounded=0;" vertex="1" parent="1">
                    <mxGeometry x="57.75" y="166" width="110" height="30" as="geometry"/>
                </mxCell>
                <mxCell id="174" value="" style="shape=cube;whiteSpace=wrap;html=1;boundedLbl=1;backgroundOutline=1;darkOpacity=0.05;darkOpacity2=0.1;size=30;fillColor=#f8cecc;strokeColor=#b85450;gradientColor=#ea6b66;" vertex="1" parent="1">
                    <mxGeometry x="780" y="428" width="60" height="50" as="geometry"/>
                </mxCell>
                <mxCell id="175" value="" style="shape=cube;whiteSpace=wrap;html=1;boundedLbl=1;backgroundOutline=1;darkOpacity=0.05;darkOpacity2=0.1;size=30;fillColor=#fff2cc;strokeColor=#d6b656;gradientColor=#ffd966;" vertex="1" parent="1">
                    <mxGeometry x="780" y="136" width="60" height="50" as="geometry"/>
                </mxCell>
                <mxCell id="176" value="" style="shape=cube;whiteSpace=wrap;html=1;boundedLbl=1;backgroundOutline=1;darkOpacity=0.05;darkOpacity2=0.1;size=30;fillColor=#e6d0de;strokeColor=#996185;gradientColor=#d5739d;" vertex="1" parent="1">
                    <mxGeometry x="780" y="210" width="60" height="50" as="geometry"/>
                </mxCell>
                <mxCell id="177" value="" style="shape=cube;whiteSpace=wrap;html=1;boundedLbl=1;backgroundOutline=1;darkOpacity=0.05;darkOpacity2=0.1;size=30;fillColor=#d5e8d4;strokeColor=#82b366;gradientColor=#97d077;" vertex="1" parent="1">
                    <mxGeometry x="780" y="285" width="60" height="50" as="geometry"/>
                </mxCell>
                <mxCell id="178" value="&lt;font style=&quot;font-size: 28px;&quot;&gt;...&lt;/font&gt;" style="text;html=1;strokeColor=none;fillColor=none;align=center;verticalAlign=middle;whiteSpace=wrap;rounded=0;rotation=90;" vertex="1" parent="1">
                    <mxGeometry x="780" y="360" width="60" height="30" as="geometry"/>
                </mxCell>
                <mxCell id="179" value="&lt;b&gt;Class &lt;br&gt;Capsule&lt;/b&gt;" style="text;html=1;strokeColor=none;fillColor=none;align=center;verticalAlign=middle;whiteSpace=wrap;rounded=0;" vertex="1" parent="1">
                    <mxGeometry x="740" y="86" width="110" height="30" as="geometry"/>
                </mxCell>
                <mxCell id="180" value="&lt;span style=&quot;font-size: 20px;&quot;&gt;(1)&lt;/span&gt;" style="text;html=1;strokeColor=none;fillColor=none;align=center;verticalAlign=middle;whiteSpace=wrap;rounded=0;fontSize=28;" vertex="1" parent="1">
                    <mxGeometry x="326" y="90" width="60" height="30" as="geometry"/>
                </mxCell>
                <mxCell id="181" value="&lt;span style=&quot;font-size: 20px;&quot;&gt;(2)&lt;/span&gt;" style="text;html=1;strokeColor=none;fillColor=none;align=center;verticalAlign=middle;whiteSpace=wrap;rounded=0;fontSize=28;" vertex="1" parent="1">
                    <mxGeometry x="326" y="180" width="60" height="30" as="geometry"/>
                </mxCell>
                <mxCell id="182" value="&lt;span style=&quot;font-size: 20px;&quot;&gt;(4)&lt;/span&gt;" style="text;html=1;strokeColor=none;fillColor=none;align=center;verticalAlign=middle;whiteSpace=wrap;rounded=0;fontSize=28;" vertex="1" parent="1">
                    <mxGeometry x="326" y="384" width="60" height="30" as="geometry"/>
                </mxCell>
                <mxCell id="183" value="&lt;span style=&quot;font-size: 20px;&quot;&gt;(3)&lt;/span&gt;" style="text;html=1;strokeColor=none;fillColor=none;align=center;verticalAlign=middle;whiteSpace=wrap;rounded=0;fontSize=28;" vertex="1" parent="1">
                    <mxGeometry x="326" y="267" width="60" height="30" as="geometry"/>
                </mxCell>
                <mxCell id="186" value="&lt;font style=&quot;font-size: 18px;&quot;&gt;c&lt;/font&gt;" style="text;html=1;strokeColor=none;fillColor=none;align=center;verticalAlign=middle;whiteSpace=wrap;rounded=0;" vertex="1" parent="1">
                    <mxGeometry x="563" y="490" width="60" height="30" as="geometry"/>
                </mxCell>
                <mxCell id="187" value="" style="endArrow=classic;startArrow=classic;html=1;dashed=1;" edge="1" parent="1">
                    <mxGeometry width="50" height="50" relative="1" as="geometry">
                        <mxPoint x="528.5" y="490" as="sourcePoint"/>
                        <mxPoint x="657.5" y="490" as="targetPoint"/>
                    </mxGeometry>
                </mxCell>
                <mxCell id="188" value="&lt;font style=&quot;font-size: 18px;&quot;&gt;h x w&lt;/font&gt;" style="text;html=1;strokeColor=none;fillColor=none;align=center;verticalAlign=middle;whiteSpace=wrap;rounded=0;" vertex="1" parent="1">
                    <mxGeometry x="655" y="428" width="64.5" height="30" as="geometry"/>
                </mxCell>
                <mxCell id="189" value="" style="endArrow=classic;startArrow=classic;html=1;dashed=1;" edge="1" parent="1">
                    <mxGeometry width="50" height="50" relative="1" as="geometry">
                        <mxPoint x="646" y="426" as="sourcePoint"/>
                        <mxPoint x="676" y="466" as="targetPoint"/>
                        <Array as="points">
                            <mxPoint x="656" y="436"/>
                        </Array>
                    </mxGeometry>
                </mxCell>
                <mxCell id="190" value="&lt;font style=&quot;font-size: 18px;&quot;&gt;c/p&lt;/font&gt;" style="text;html=1;strokeColor=none;fillColor=none;align=center;verticalAlign=middle;whiteSpace=wrap;rounded=0;" vertex="1" parent="1">
                    <mxGeometry x="578" y="72" width="60" height="30" as="geometry"/>
                </mxCell>
                <mxCell id="192" value="" style="endArrow=classic;startArrow=classic;html=1;dashed=1;entryX=0.875;entryY=-0.1;entryDx=0;entryDy=0;entryPerimeter=0;" edge="1" parent="1" target="193">
                    <mxGeometry width="50" height="50" relative="1" as="geometry">
                        <mxPoint x="540" y="390" as="sourcePoint"/>
                        <mxPoint x="610" y="390" as="targetPoint"/>
                    </mxGeometry>
                </mxCell>
                <mxCell id="193" value="&lt;font style=&quot;font-size: 18px;&quot;&gt;w&lt;/font&gt;" style="text;html=1;strokeColor=none;fillColor=none;align=center;verticalAlign=middle;whiteSpace=wrap;rounded=0;" vertex="1" parent="1">
                    <mxGeometry x="546.5" y="392" width="60" height="30" as="geometry"/>
                </mxCell>
                <mxCell id="19" value="" style="endArrow=classic;startArrow=classic;html=1;dashed=1;" edge="1" parent="1">
                    <mxGeometry width="50" height="50" relative="1" as="geometry">
                        <mxPoint x="613" y="340" as="sourcePoint"/>
                        <mxPoint x="613" y="390" as="targetPoint"/>
                        <Array as="points"/>
                    </mxGeometry>
                </mxCell>
                <mxCell id="20" value="&lt;font style=&quot;font-size: 18px;&quot;&gt;h&lt;/font&gt;" style="text;html=1;strokeColor=none;fillColor=none;align=center;verticalAlign=middle;whiteSpace=wrap;rounded=0;" vertex="1" parent="1">
                    <mxGeometry x="594" y="352" width="60" height="30" as="geometry"/>
                </mxCell>
                <mxCell id="201" value="&lt;font style=&quot;font-size: 18px;&quot;&gt;c/p&lt;/font&gt;" style="text;html=1;strokeColor=none;fillColor=none;align=center;verticalAlign=middle;whiteSpace=wrap;rounded=0;" vertex="1" parent="1">
                    <mxGeometry x="570" y="305" width="60" height="30" as="geometry"/>
                </mxCell>
                <mxCell id="203" value="" style="endArrow=classic;startArrow=classic;html=1;dashed=1;entryX=0.5;entryY=1;entryDx=0;entryDy=0;" edge="1" parent="1" target="201">
                    <mxGeometry width="50" height="50" relative="1" as="geometry">
                        <mxPoint x="560" y="290" as="sourcePoint"/>
                        <mxPoint x="623" y="400" as="targetPoint"/>
                        <Array as="points"/>
                    </mxGeometry>
                </mxCell>
            </root>
        </mxGraphModel>
    </diagram>
</mxfile>